<svg xmlns="http://www.w3.org/2000/svg" xmlns:xlink="http://www.w3.org/1999/xlink" width="149" height="54" viewBox="0 0 149 54">
    <defs>
        <filter id="a" width="101.6%" height="130.7%" x="-.8%" y="-12.7%" filterUnits="objectBoundingBox">
            <feOffset dy="2" in="SourceAlpha" result="shadowOffsetOuter1"/>
            <feGaussianBlur in="shadowOffsetOuter1" result="shadowBlurOuter1" stdDeviation="3.5"/>
            <feColorMatrix in="shadowBlurOuter1" result="shadowMatrixOuter1" values="0 0 0 0 0.62745098 0 0 0 0 0.62745098 0 0 0 0 0.62745098 0 0 0 0.5 0"/>
            <feMerge>
                <feMergeNode in="shadowMatrixOuter1"/>
                <feMergeNode in="SourceGraphic"/>
            </feMerge>
        </filter>
        <linearGradient id="c" x1="14.967%" x2="105.759%" y1="68.412%" y2="-22.125%">
            <stop offset="0%" stop-color="#5C6EB4"/>
            <stop offset="100%" stop-color="#4BC9F4"/>
        </linearGradient>
        <path id="b" d="M1.012 1.025A3.46 3.46 0 0 0 0 3.505c0 .953.35 1.81 1.012 2.48a3.372 3.372 0 0 0 2.45 1.027c.417 0 .814-.074 1.187-.21l6.971 6.554c-1.383 1.946-2.086 4.188-2.086 6.693 0 3.212 1.137 5.975 3.38 8.21 2.253 2.245 4.98 3.384 8.11 3.384 2.749 0 5.187-.88 7.267-2.614l6.946 6.53c-.075.274-.12.556-.127.842a3.473 3.473 0 0 0 1.086 2.647 3.44 3.44 0 0 0 2.289.951 3.384 3.384 0 0 0 2.605-1.097 3.531 3.531 0 0 0 .941-2.315 3.472 3.472 0 0 0-1.082-2.643 3.441 3.441 0 0 0-3.55-.75l-6.93-6.515c1.356-1.916 2.045-4.136 2.045-6.63 0-3.19-1.135-5.958-3.371-8.223-2.237-2.265-4.969-3.414-8.119-3.414-2.744 0-5.168.872-7.226 2.593L6.803 4.428c.077-.295.12-.603.12-.922 0-.952-.35-1.81-1.013-2.481A3.373 3.373 0 0 0 3.461 0c-.94 0-1.786.354-2.449 1.025zm16.314 22.727c-1.037-1.05-1.54-2.261-1.54-3.703 0-1.471.503-2.696 1.54-3.746 1.036-1.05 2.246-1.56 3.698-1.56s2.662.51 3.698 1.56c1.037 1.05 1.541 2.275 1.541 3.746 0 1.442-.504 2.653-1.54 3.703-1.037 1.05-2.247 1.56-3.699 1.56s-2.662-.51-3.698-1.56zM41.624 2.113H30.08v6.394h5.418v21.007h6.125V8.507H47V2.113h-5.376zM.42 29.513h6.124V10.016H.421v19.499z"/>
    </defs>
    <g fill="none" fill-rule="evenodd" filter="url(#a)" transform="translate(7 5)">
        <path fill="#24325E" d="M64.166 15.056c-1.26-1.399-2.815-2.098-4.666-2.098-1.852 0-3.406.7-4.666 2.098-1.252 1.39-1.879 3.022-1.879 4.894 0 1.871.627 3.503 1.88 4.894 1.259 1.398 2.813 2.097 4.665 2.097 1.851 0 3.406-.699 4.666-2.097 1.252-1.391 1.879-3.023 1.879-4.894 0-1.872-.627-3.503-1.88-4.894zM50 29.563V2h2.955v11.62c.166-.225.342-.446.528-.662 1.755-2.04 3.916-3.059 6.481-3.059 2.566 0 4.727 1.02 6.482 3.059C68.149 14.938 69 17.268 69 19.95c0 2.682-.851 5.012-2.554 6.99C64.69 28.98 62.53 30 59.964 30c-2.565 0-4.726-1.02-6.48-3.06a11.085 11.085 0 0 1-.529-.66v3.283H50zM71 29h3V2h-3zM91.913 15.098c-1.362-1.365-3-2.048-4.913-2.048-1.913 0-3.55.683-4.913 2.048-1.362 1.365-2.044 3.006-2.044 4.924 0 1.888.682 3.515 2.044 4.88 1.362 1.365 3 2.048 4.913 2.048 1.914 0 3.551-.683 4.913-2.048s2.044-2.992 2.044-4.88c0-1.918-.682-3.559-2.044-4.924m2.152 11.983C92.092 29.027 89.737 30 87 30s-5.092-.973-7.065-2.92C77.978 25.152 77 22.799 77 20.023c0-2.76.978-5.12 2.935-7.08C81.89 10.98 84.246 10 87 10c2.754 0 5.109.98 7.065 2.941C96.022 14.902 97 17.262 97 20.021c0 2.777-.978 5.13-2.935 7.06M114.726 17.277a6.726 6.726 0 0 0-2.413-2.964c-1.092-.755-2.197-1.132-3.318-1.132-1.12 0-2.082.181-2.886.544-.804.363-1.5.857-2.09 1.482-1.278 1.355-1.917 2.946-1.917 4.771 0 1.854.64 3.46 1.917 4.815 1.274 1.35 2.832 2.026 4.675 2.026a6.17 6.17 0 0 0 3.34-.959 6.711 6.711 0 0 0 2.39-2.57h3.404c-1.071 3.07-3.125 5.139-6.161 6.209-.948.334-2.025.501-3.232.501-1.206 0-2.398-.27-3.576-.806a9.668 9.668 0 0 1-3.059-2.179c-1.867-1.982-2.8-4.328-2.8-7.037 0-2.726.933-5.064 2.8-7.015 1.89-1.976 4.188-2.963 6.894-2.963 2.172 0 4.132.683 5.881 2.048 1.688 1.318 2.83 3.06 3.425 5.229h-3.274zM121 29V2h3.125v16.599l7.187-8.476h4.152l-8.08 9.16L136 29h-4.152l-7.723-9.037V29z"/>
        <use fill="url(#c)" xlink:href="#b"/>
    </g>
</svg>
